<svg xmlns="http://www.w3.org/2000/svg" style="display:none">
<symbol id="bx-facebook-square" viewBox="0 0 24 24"><path d="M20 3H4a1 1 0 0 0-1 1v16a1 1 0 0 0 1 1h8.615v-6.96h-2.338v-2.725h2.338v-2c0-2.325 1.42-3.592 3.5-3.592q1.05-.003 2.095.107v2.42h-1.435c-1.128 0-1.348.538-1.348 1.325v1.735h2.697l-.35 2.725h-2.348V21H20a1 1 0 0 0 1-1V4a1 1 0 0 0-1-1"/></symbol>
<symbol id="bx-instagram-alt" viewBox="0 0 24 24"><path d="M20.947 8.305a6.5 6.5 0 0 0-.419-2.216 4.6 4.6 0 0 0-2.633-2.633 6.6 6.6 0 0 0-2.186-.42c-.962-.043-1.267-.055-3.709-.055s-2.755 0-3.71.055a6.6 6.6 0 0 0-2.185.42 4.6 4.6 0 0 0-2.633 2.633 6.6 6.6 0 0 0-.419 2.185c-.043.963-.056 1.268-.056 3.71s0 2.754.056 3.71c.015.748.156 1.486.419 2.187a4.6 4.6 0 0 0 2.634 2.632 6.6 6.6 0 0 0 2.185.45c.963.043 1.268.056 3.71.056s2.755 0 3.71-.056a6.6 6.6 0 0 0 2.186-.419 4.62 4.62 0 0 0 2.633-2.633c.263-.7.404-1.438.419-2.187.043-.962.056-1.267.056-3.71-.002-2.442-.002-2.752-.058-3.709m-8.953 8.297c-2.554 0-4.623-2.069-4.623-4.623s2.069-4.623 4.623-4.623a4.623 4.623 0 0 1 0 9.246m4.807-8.339a1.077 1.077 0 0 1-1.078-1.078 1.077 1.077 0 1 1 2.155 0c0 .596-.482 1.078-1.077 1.078"/><path d="M11.994 8.976a3.003 3.003 0 1 0 0 6.006 3.003 3.003 0 1 0 0-6.006"/></symbol>
<symbol id="bx-linkedin-square" viewBox="0 0 24 24"><path d="M20 3H4a1 1 0 0 0-1 1v16a1 1 0 0 0 1 1h16a1 1 0 0 0 1-1V4a1 1 0 0 0-1-1M8.339 18.337H5.667v-8.59h2.672zM7.003 8.574a1.548 1.548 0 1 1 0-3.096 1.548 1.548 0 0 1 0 3.096m11.335 9.763h-2.669V14.16c0-.996-.018-2.277-1.388-2.277-1.39 0-1.601 1.086-1.601 2.207v4.248h-2.667v-8.59h2.56v1.174h.037c.355-.675 1.227-1.387 2.524-1.387 2.704 0 3.203 1.778 3.203 4.092v4.71z"/></symbol>
</svg>