<svg xmlns="http://www.w3.org/2000/svg" style="display:none">
<symbol id="bx-menu" viewBox="0 0 24 24"><path d="M4 6h16v2H4zm0 5h16v2H4zm0 5h16v2H4z"/></symbol>
<symbol id="bx-x" viewBox="0 0 24 24"><path d="m7.76 14.83-2.83 2.83 1.41 1.41 2.83-2.83 2.12-2.12.71-.71.71.71 1.41 1.42 3.54 3.53 1.41-1.41-3.53-3.54-1.42-1.41-.71-.71 5.66-5.66-1.41-1.41L12 10.59 6.34 4.93 4.93 6.34 10.59 12l-.71.71z"/></symbol>
<symbol id="bxs-arrow-to-top-stroke" viewBox="0 0 24 24"><path d="M6 4h12v2H6zm6 3.59-6.71 6.7 1.42 1.42 4.29-4.3V20h2v-8.59l4.29 4.3 1.42-1.42z"/></symbol>
<symbol id="bxs-envelope" viewBox="0 0 24 24"><path d="M20 4H4c-1.1 0-2 .9-2 2v.25l10 7.5 10-7.5V6c0-1.1-.9-2-2-2"/><path d="M12 16c-.21 0-.42-.07-.6-.2L2 8.75V18c0 1.1.9 2 2 2h16c1.1 0 2-.9 2-2V8.75l-9.4 7.05c-.18.13-.39.2-.6.2"/></symbol>
<symbol id="bxs-message-edit" viewBox="0 0 24 24"><path d="M20 3H4c-1.1 0-2 .9-2 2v12c0 1.1.9 2 2 2h3v2c0 .36.19.69.51.87.15.09.32.13.49.13s.36-.05.51-.14L13.27 19h6.72c1.1 0 2-.9 2-2V5c0-1.1-.9-2-2-2Zm-7 9-3 3H8v-2l3-3 1.15-1.15 2 2zm1.85-1.85-2-2L14 7l1 1 1 1z"/></symbol>
<symbol id="bxs-phone" viewBox="0 0 24 24"><path d="M18.41 22h.37c.31-.01.6-.17.78-.43l2.27-3.27c.15-.22.21-.49.16-.76a1 1 0 0 0-.43-.65l-4.91-3.27c-.41-.27-.96-.21-1.29.15l-1.88 2.03c-.76-.45-2.03-1.26-3.03-2.26s-1.81-2.27-2.26-3.02l2.03-1.88c.36-.33.43-.88.15-1.29L7.1 2.44c-.15-.22-.38-.38-.64-.43-.27-.05-.54 0-.76.16L2.43 4.43c-.26.18-.42.47-.43.78-.03.71-.16 7.04 4.79 11.98 4.46 4.46 10.04 4.8 11.62 4.8Z"/></symbol>
</svg>